<svg width="196" height="248" viewBox="0 0 196 248" fill="none" xmlns="http://www.w3.org/2000/svg">
<path d="M195.615 194.419C196.481 195.384 195.615 248.12 195.615 248.12H1.21039C1.21039 248.12 0.451628 195.384 1.21041 194.293C15.2947 178.594 34.3474 166.351 56.3313 159.403C62.4847 176.297 79.0013 188.401 98.3762 188.401C116.39 188.401 131.919 177.962 138.914 162.952C139.475 161.804 139.953 160.655 140.4 159.403L141.596 159.782C163.039 166.811 181.676 178.904 195.615 194.419Z" fill="#AA392D"/>
<path d="M140.38 159.403C139.933 160.609 139.454 161.78 138.893 162.952C131.877 177.962 116.348 188.401 98.3554 188.401C78.9805 188.401 62.464 176.296 56.3105 159.403L59.0858 158.565L59.3145 158.484C59.3145 158.484 61.1647 157.944 62.8797 157.52C66.1143 164.876 71.157 171.078 77.4313 175.417C83.7057 179.757 90.9585 182.058 98.3606 182.058C105.763 182.058 113.016 179.757 119.29 175.417C125.564 171.078 130.607 164.876 133.842 157.52C136.079 157.866 138.273 158.498 140.38 159.403Z" fill="#7C211A"/>
<path d="M133.821 157.52C130.589 164.88 125.547 171.086 119.273 175.428C112.998 179.77 105.744 182.073 98.3398 182.073C90.936 182.073 83.6817 179.77 77.407 175.428C71.1323 171.086 66.0906 164.88 62.8589 157.52C64.2622 157.13 65.6758 156.796 67.0998 156.475L68.1392 156.245C68.316 156.188 68.5031 156.142 68.6694 156.107L69.5737 155.912L70.821 155.682C71.112 155.602 71.4446 155.556 71.7669 155.476H71.9228C72.2866 154.477 72.6296 153.409 72.9622 152.237C73.0765 151.847 73.1909 151.422 73.3052 151.008C73.6856 149.469 73.9944 147.909 74.2303 146.334C76.4516 148.366 78.8588 150.137 81.4128 151.617C81.5998 151.72 81.7766 151.824 81.9637 151.95L82.6081 152.306L83.3981 152.72C83.5644 152.8 83.7203 152.869 83.8554 152.949L84.2504 153.156L84.7389 153.386L85.1963 153.581C85.2601 153.627 85.3303 153.662 85.4042 153.684C85.5869 153.773 85.7743 153.85 85.9655 153.914L86.6515 154.224L87.4103 154.534H87.5766L88.1067 154.741L88.9174 154.993C89.0318 154.993 89.1461 155.074 89.2812 155.097L90.0192 155.326C91.574 155.737 93.1499 156.044 94.7382 156.245H95.2164C95.3307 156.245 95.445 156.245 95.5698 156.245H96.2142H96.7859C96.9938 156.245 97.2329 156.245 97.4615 156.245H98.0332C101.478 156.237 104.898 155.604 108.157 154.373C108.167 154.378 108.178 154.381 108.188 154.381C108.199 154.381 108.21 154.378 108.22 154.373C108.348 154.347 108.474 154.304 108.594 154.247C109.425 153.937 110.163 153.604 110.808 153.328L111.691 152.915L111.92 152.823C115.649 151.059 119.115 148.681 122.2 145.771C122.522 147.356 122.917 149.045 123.406 150.802C123.842 152.386 124.3 153.868 124.767 155.269C125.152 155.349 125.526 155.395 125.921 155.499L127.054 155.728L128.187 155.958C128.457 155.958 128.738 156.084 129.019 156.13C129.2 156.188 129.384 156.234 129.57 156.268C131.025 156.796 132.428 157.13 133.821 157.52Z" fill="#EAB198"/>
<path d="M47.86 65.5877C46.9101 71.3781 46.5614 77.2694 46.8205 83.1473C46.8205 84.2957 46.9349 85.513 47.0492 86.6959C47.0492 87.1209 47.1116 87.5802 47.1635 88.0166C44.9703 86.7419 44.0453 81.126 42.3302 70.4341C41.2908 63.6927 40.7191 60.3278 40.875 56.6528C41.2811 50.9446 42.7271 45.3859 45.1263 40.3105C46.1865 44.5673 48.4657 48.3304 51.6227 51.037C49.9512 55.7435 48.6912 60.6159 47.86 65.5877Z" fill="#2D2D2D"/>
<path d="M154.287 70.4336C153.456 75.6361 152.801 79.6211 152.115 82.5037C151.377 85.616 150.566 87.4305 149.381 88.0392C149.568 86.2017 149.714 84.3986 149.776 82.5611C150.222 72.9532 148.983 63.3406 146.128 54.2521C146.128 54.2521 146.128 54.1718 146.128 54.1488C148.929 52.0807 151.619 49.8335 154.183 47.4189C155.022 50.4057 155.552 53.4879 155.763 56.6064C155.919 60.3504 155.368 63.7268 154.287 70.4336Z" fill="#2D2D2D"/>
<path opacity="0.2" d="M141.564 159.782C140.712 160.931 139.808 161.93 138.883 162.952C136.848 165.219 134.667 167.319 132.355 169.234C129.3 171.744 125.977 173.827 122.46 175.436C120.237 176.425 117.932 177.175 115.579 177.675C113.499 178.112 111.386 178.319 109.269 178.295C105.123 178.187 101.029 177.241 97.1913 175.505C96.9622 175.412 96.7398 175.301 96.526 175.171C93.4578 173.733 90.5492 171.911 87.8572 169.739C82.8091 165.578 78.3617 160.595 74.6668 154.959C74.0744 154.075 73.4923 153.179 72.9206 152.237C73.0349 151.847 73.1493 151.422 73.2636 151.008C73.644 149.469 73.9528 147.909 74.1887 146.334C74.7916 146.874 75.4152 147.414 76.0597 147.919C77.7546 149.279 79.5289 150.515 81.3711 151.617C81.5582 151.72 81.735 151.824 81.9221 151.95L82.5665 152.306L83.3565 152.72C83.5228 152.8 83.6787 152.869 83.8138 152.949L84.2088 153.156L84.6973 153.386L85.1547 153.581C85.2185 153.627 85.2887 153.662 85.3626 153.684L85.9239 153.914L86.6099 154.224L87.3687 154.534H87.535L88.0651 154.741L88.8758 154.993C88.9902 154.993 89.1045 155.074 89.2396 155.097L89.9776 155.326C91.5282 155.76 93.1054 156.067 94.6966 156.245H95.1748C95.2891 156.245 95.4034 156.245 95.5282 156.245H96.1726H96.7443C96.9522 156.245 97.1913 156.245 97.4199 156.245H97.9916C101.434 156.205 104.849 155.574 108.116 154.373C108.125 154.378 108.136 154.381 108.147 154.381C108.158 154.381 108.168 154.378 108.178 154.373C108.307 154.347 108.432 154.304 108.552 154.247C109.249 153.994 109.914 153.707 110.631 153.409L110.839 153.328C111.109 153.202 111.39 153.076 111.691 152.915L111.92 152.823C114.953 151.285 117.834 149.403 120.516 147.207C121.088 146.748 121.649 146.254 122.2 145.771C122.522 147.356 122.917 149.045 123.406 150.802C123.842 152.386 124.3 153.868 124.767 155.269C125.152 155.349 125.526 155.395 125.921 155.499L127.054 155.728L128.187 155.958C128.457 155.958 128.738 156.084 129.019 156.13C129.2 156.188 129.384 156.234 129.569 156.268C131.004 156.59 132.407 156.923 133.8 157.313C136.014 157.876 138.207 158.462 140.359 159.197L141.564 159.782Z" fill="black"/>
<path d="M158.819 95.0567C158.653 101.029 155.202 107.081 151.346 109.309C150.825 109.61 150.274 109.841 149.703 109.998H149.579C148.88 110.181 148.155 110.204 147.448 110.067C146.696 109.903 145.986 109.558 145.369 109.056L145.078 108.815C144.646 108.438 144.252 108.01 143.903 107.54C141.118 103.831 139.985 96.8712 141.824 91.3128C142.572 89.1424 143.715 87.1646 145.182 85.5017C146.427 84.0356 148.03 82.9986 149.797 82.5158C150.61 82.332 151.448 82.332 152.26 82.5158C156.844 83.5608 158.965 90.061 158.819 95.0567Z" fill="#EAB198"/>
<path opacity="0.3" d="M158.819 95.0567C158.653 101.029 155.202 107.081 151.335 109.309C150.818 109.61 150.27 109.841 149.703 109.998H149.579C148.88 110.181 148.155 110.204 147.448 110.067C146.696 109.903 145.986 109.558 145.369 109.056L145.078 108.815C144.644 108.441 144.25 108.013 143.903 107.54C141.118 103.831 139.985 96.8712 141.824 91.3128C142.572 89.1424 143.715 87.1646 145.182 85.5017C146.427 84.0356 148.03 82.9986 149.797 82.5158C150.61 82.332 151.448 82.332 152.26 82.5158C156.844 83.5608 158.965 90.061 158.819 95.0567Z" fill="black"/>
<path d="M52.7661 107.575C52.3406 108.15 51.8478 108.659 51.3005 109.091C50.6813 109.588 49.9722 109.933 49.2216 110.101C48.5145 110.239 47.7894 110.215 47.0908 110.032H46.9661C46.3958 109.876 45.8444 109.644 45.3238 109.343C41.4675 107.115 38.0478 101.063 37.8399 95.0911C37.7047 90.0954 39.8252 83.6067 44.4195 82.5731C47.0284 81.9874 49.523 83.3885 51.4876 85.5705C52.9612 87.2299 54.1079 89.2085 54.8553 91.3816C56.6847 96.9056 55.5413 103.865 52.7661 107.575Z" fill="#EAB198"/>
<path d="M149.776 82.5617C149.714 84.3992 149.568 86.2023 149.381 88.0398C148.672 95.1387 147.217 102.122 145.047 108.849C140.192 123.905 132.033 137.25 122.179 145.978C121.628 146.461 121.067 146.955 120.495 147.414C117.813 149.61 114.933 151.492 111.899 153.03L111.67 153.122C111.369 153.283 111.088 153.409 110.818 153.535L110.61 153.616C109.935 153.914 109.269 154.201 108.531 154.454C108.411 154.511 108.286 154.554 108.157 154.58C108.147 154.585 108.137 154.588 108.126 154.588C108.115 154.588 108.105 154.585 108.095 154.58C104.828 155.781 101.413 156.412 97.9708 156.452H97.3991C97.1705 156.452 96.9314 156.452 96.7235 156.452H96.1518H95.5074C95.3826 156.452 95.2683 156.452 95.154 156.452H94.6758C93.0846 156.274 91.5074 155.967 89.9568 155.533L89.2188 155.304C89.0837 155.304 88.9694 155.223 88.855 155.2L88.0443 154.948L87.5142 154.741H87.3478L86.5891 154.431L85.903 154.121L85.3418 153.891C85.2679 153.869 85.1977 153.834 85.1339 153.788L84.6765 153.593L84.188 153.363L83.793 153.156C83.6579 153.076 83.502 153.007 83.3357 152.926L82.5457 152.513L81.9012 152.157C81.7141 152.031 81.5374 151.927 81.3503 151.824C79.5081 150.722 77.7338 149.486 76.0389 148.126C75.3944 147.621 74.7708 147.081 74.1679 146.541C70.883 143.634 67.8865 140.351 65.2288 136.745C58.9383 128.18 54.1224 118.414 51.0198 107.931C49.0886 101.456 47.8059 94.7663 47.1947 87.9824C47.1947 87.546 47.1012 87.0866 47.0804 86.6617C46.966 85.5132 46.8933 84.3648 46.8517 83.113C46.5925 77.2352 46.9413 71.3438 47.8911 65.5534C48.7217 60.5777 49.9817 55.7014 51.6539 50.9912C52.3399 48.9699 53.1298 46.9602 53.9822 44.9619C58.136 35.0296 64.1977 26.2159 71.746 19.1335C72.0682 18.8349 72.3905 18.5478 72.7231 18.2722C79.9296 11.8068 88.8965 8.21042 98.1787 8.06259C108.303 8.03962 117.346 12.3233 124.934 19.0761C128.953 22.7311 132.53 26.9421 135.577 31.6056C139.204 37.1251 142.219 43.1052 144.558 49.4178C145.119 51.0027 145.67 52.5301 146.159 54.1149C146.159 54.1149 146.159 54.1953 146.159 54.2183C149.015 63.3067 150.253 72.9194 149.807 82.5273L149.776 82.5617Z" fill="#EAB198"/>
<path opacity="0.2" d="M155.742 56.6071C154.647 57.8682 153.454 59.0211 152.177 60.0524C152.083 60.1558 151.605 60.5118 150.982 60.9941C149.942 61.7406 148.903 62.4756 147.863 63.1877C143.449 66.1585 138.776 68.6324 133.914 70.5721C123.428 74.7361 112.268 76.4305 101.154 75.5464C90.0392 74.6623 79.2148 71.2193 69.3761 65.4386C67.0374 64.0375 64.7714 62.4986 62.599 60.8448C61.861 60.2821 61.1438 59.6964 60.4266 59.1337C58.5197 57.5998 56.6877 55.9552 54.9384 54.2069C54.1069 53.3915 53.2753 52.5531 52.4854 51.6803C55.2992 54.0067 58.365 55.9357 61.6116 57.4225C68.3263 60.6955 76.3507 63.1647 84.136 65.542C90.8655 67.7352 97.8362 68.8946 104.852 68.9873C111.925 69.0382 118.963 67.8759 125.713 65.542C128.783 64.4477 131.765 63.0765 134.631 61.442C135.993 60.6955 137.355 59.8802 138.789 59.0418C141.523 57.3995 143.893 55.8262 146.117 54.1609C148.889 52.113 151.551 49.8889 154.09 47.5C154.978 50.449 155.533 53.5078 155.742 56.6071Z" fill="black"/>
<path d="M172.093 22.521C172.02 28.9523 166.552 34.8208 164.952 36.4745C160.867 40.7697 157.489 44.2839 154.162 47.4077L154.079 47.4766C151.541 49.8655 148.879 52.0895 146.107 54.1375C143.882 55.8027 141.513 57.3761 138.779 59.0184C137.376 59.8567 136.014 60.6721 134.621 61.4186C131.755 63.053 128.772 64.4243 125.703 65.5185C118.952 67.8525 111.915 69.0147 104.841 68.9638C97.8258 68.8711 90.8551 67.7118 84.1257 65.5185C76.3403 63.1183 68.3159 60.6721 61.6012 57.3991C58.3547 55.9122 55.2889 53.9832 52.4751 51.6569C52.1944 51.4042 51.9138 51.1745 51.6435 50.9219C48.4865 48.2153 46.2074 44.4522 45.1471 40.1955C42.694 29.4116 49.8765 18.5704 50.9575 16.9626C54.357 12.1673 58.8326 8.4378 63.94 6.14431C73.669 1.55056 78.1697 5.14516 99.2805 6.14431C118.063 7.04009 127.47 7.49946 136.336 3.66368C139.912 2.11329 146.616 -1.30906 147.77 0.528442C148.716 2.00993 145.961 6.39696 145.317 7.41907C142.895 11.2778 140.858 12.3229 141.159 13.2416C141.689 14.7231 147.562 13.9996 152.458 12.4263C157.655 10.7381 159.619 8.75126 160.544 9.71594C161.792 11.0137 159.921 16.6066 156.771 20.3045C154.516 22.9919 152.406 23.7498 152.614 24.6686C152.915 25.8974 156.948 26.3338 160.69 25.2888C166.604 23.6465 169.608 18.8805 171.271 20.0748C171.791 20.339 172.113 20.9936 172.093 22.521Z" fill="#2D2D2D"/>
</svg>
