<svg width="111" height="32" viewBox="0 0 111 32" fill="none" xmlns="http://www.w3.org/2000/svg">
<path d="M0 16.0223C0.0449486 5.35565 8.13572 0 16.1366 0C22.4744 0.0446325 29.0818 3.30265 30.6101 11.0683H22.6991C21.3956 8.39052 19.3279 7.31939 16.1366 7.31939C11.0574 7.31939 8.31551 11.2469 8.31551 16.0223C8.31551 21.1994 11.372 24.5914 16.1366 24.5914C19.3729 24.5914 21.4405 23.7434 22.8789 20.7531H16.1815V13.8354H31.0596C31.2394 16.9596 31.2394 19.9498 30.1606 22.9847C27.9131 29.5007 21.935 32 16.1366 32C8.13572 32 0.0449486 26.689 0 16.0223Z" fill="#216AD7"/>
<path d="M42.1212 12.6246H44.1214C44.1214 13.9412 44.1214 14.7669 44.1214 16.1281C41.447 16.1281 38.8175 16.1281 36.143 16.1281C36.143 14.7669 36.143 13.9412 36.143 12.6246H38.1432V3.98866H36.3003C36.3003 2.64975 36.3003 1.82409 36.3003 0.507493C38.8624 0.507493 41.402 0.507493 43.9641 0.507493C43.9641 1.82409 43.9641 2.64975 43.9641 3.98866H42.1212V12.6246Z" fill="#020B18"/>
<path d="M53.8092 0.507493C64.0576 0.552124 64.0576 16.0835 53.8092 16.1281H47.876V0.507493H53.8092ZM51.8989 4.14487V12.4908H53.8092C58.821 12.4908 58.821 4.14487 53.8092 4.14487H51.8989Z" fill="#020B18"/>
<path d="M69.7028 0.507493C69.7028 8.5856 69.7028 5.88546 69.7028 12.5354H75.4113C75.4113 13.8743 75.4113 14.7892 75.4113 16.1281C72.175 16.1281 68.8488 16.1281 65.6574 16.1281V0.507493C67.0059 0.507493 68.3319 0.507493 69.7028 0.507493Z" fill="#020B18"/>
<path d="M89.9952 16.1281L89.0738 14.1644H82.8709L81.9494 16.1281H78.0164V15.5479L85.0958 0.306656H86.8264L93.9282 15.5479V16.1281H89.9952ZM87.7478 10.7279L85.9498 6.62186L84.1968 10.7279H87.7478Z" fill="#020B18"/>
<path d="M107.321 10.594L110.4 15.5479V16.1281H105.905L103.208 11.5312H101.118V16.1281C99.7696 16.1281 98.3987 16.1281 97.0952 16.1281C97.0952 10.9287 97.0952 5.72925 97.0952 0.507493C99.3651 0.507493 101.702 0.507493 103.995 0.507493C110.175 0.529808 111.299 7.91614 107.321 10.594ZM103.995 7.93846C106.175 7.93846 106.287 4.10024 103.995 4.07793C103.051 4.05561 102.062 4.07793 101.118 4.07793C101.118 5.34989 101.118 6.6888 101.118 7.93846H103.995Z" fill="#020B18"/>
<path d="M42.6781 27.7254L44.5027 30.6611V31.0049H41.839L40.2409 28.2808H39.0023V31.0049C38.2032 31.0049 37.3908 31.0049 36.6183 31.0049C36.6183 27.9238 36.6183 24.8426 36.6183 21.7483C37.9635 21.7483 39.3486 21.7483 40.707 21.7483C44.3695 21.7615 45.0354 26.1386 42.6781 27.7254ZM40.707 26.1782C41.9989 26.1782 42.0655 23.8773 40.707 23.8641C40.1476 23.8508 39.5616 23.8641 39.0023 23.8641C39.0023 24.6178 39.0023 25.4377 39.0023 26.1782H40.707Z" fill="#020B18"/>
<path d="M52.4299 21.7483C52.4299 22.4359 52.4299 23.15 52.4299 23.8641C51.0448 23.8641 50.3522 23.8641 48.9805 23.8641V25.1732H52.1502C52.1502 25.8741 52.1502 26.575 52.1502 27.2758H48.9805C48.9805 27.818 48.9805 28.347 48.9805 28.9023C50.3522 28.9023 51.1513 28.9023 52.5497 28.9023C52.5497 29.59 52.5497 30.3041 52.5497 31.0049C50.3656 31.0049 48.7674 31.0049 46.6098 31.0049C46.6098 27.9106 46.6098 24.8162 46.6098 21.7483C48.7674 21.7483 50.2457 21.7483 52.4299 21.7483Z" fill="#020B18"/>
<path d="M59.6831 27.1171V31.0049H57.3257V27.1171L54.196 22.1053V21.7483H56.7664L58.4578 24.8294H58.551L60.2424 21.7483H62.8261V22.1053L59.6831 27.1171Z" fill="#020B18"/>
<path d="M70.2793 21.7483C70.2793 22.4359 70.2793 23.15 70.2793 23.8641C68.8942 23.8641 68.2017 23.8641 66.8299 23.8641V25.1732H69.9996C69.9996 25.8741 69.9996 26.575 69.9996 27.2758H66.8299C66.8299 27.818 66.8299 28.347 66.8299 28.9023C68.2017 28.9023 69.0008 28.9023 70.3992 28.9023C70.3992 29.59 70.3992 30.3041 70.3992 31.0049C68.215 31.0049 66.6168 31.0049 64.4593 31.0049C64.4593 27.9106 64.4593 24.8162 64.4593 21.7483C66.6168 21.7483 68.0951 21.7483 70.2793 21.7483Z" fill="#020B18"/>
<path d="M74.7623 28.175C74.7623 29.352 77.679 29.3255 77.679 28.2412C77.679 27.5932 76.9065 27.4874 75.9743 27.4345C73.9499 27.289 72.6181 26.6014 72.5914 24.5914C72.5115 20.5978 79.7566 20.5978 79.7033 24.5914C78.8643 24.5914 78.2517 24.5914 77.4392 24.5914C77.4392 23.3616 74.9354 23.4674 74.8555 24.5649C74.8023 25.2658 75.4948 25.4113 76.3338 25.5038C78.1851 25.7022 79.9963 25.9402 79.9963 28.2544C79.9963 32.1422 72.405 32.248 72.4583 28.175C73.2574 28.175 73.9499 28.175 74.7623 28.175Z" fill="#020B18"/>
<path d="M83.7845 23.8641H81.4938C81.4938 23.15 81.4938 22.4491 81.4938 21.7483H88.4192C88.4192 22.4491 88.4192 23.15 88.4192 23.8641H86.1418V31.0049C85.356 31.0049 84.5703 31.0049 83.7845 31.0049V23.8641Z" fill="#020B18"/>
<path d="M96.6035 27.7254L98.4281 30.6611V31.0049H95.7645L94.1663 28.2808H92.9277V31.0049C92.1286 31.0049 91.3162 31.0049 90.5438 31.0049C90.5438 27.9238 90.5438 24.8426 90.5438 21.7483C91.8889 21.7483 93.274 21.7483 94.6324 21.7483C98.2949 21.7615 98.9608 26.1386 96.6035 27.7254ZM94.6324 26.1518C95.9243 26.1518 95.9909 23.8773 94.6324 23.8641C94.0731 23.8508 93.4871 23.8641 92.9277 23.8641C92.9277 24.6178 92.9277 25.4113 92.9277 26.1518H94.6324Z" fill="#020B18"/>
<path d="M103.305 28.9288H104.491C104.491 29.709 104.491 30.1983 104.491 31.0049C102.906 31.0049 101.348 31.0049 99.7628 31.0049C99.7628 30.1983 99.7628 29.709 99.7628 28.9288H100.948V23.8112H99.8561C99.8561 23.0177 99.8561 22.5285 99.8561 21.7483C101.374 21.7483 102.879 21.7483 104.398 21.7483C104.398 22.5285 104.398 23.0177 104.398 23.8112H103.305V28.9288Z" fill="#020B18"/>
</svg>
