<?xml version="1.0" encoding="utf-8"?>
<!-- Generator: Adobe Illustrator 25.2.1, SVG Export Plug-In . SVG Version: 6.00 Build 0)  -->
<svg version="1.1" id="Layer_1" xmlns="http://www.w3.org/2000/svg" xmlns:xlink="http://www.w3.org/1999/xlink" x="0px" y="0px"
	 viewBox="0 0 1000 1000" style="enable-background:new 0 0 1000 1000;" xml:space="preserve">
<style type="text/css">
	.st0{fill:#065490;}
	.st1{fill:#4D6586;}
	.st2{fill:url(#SVGID_1_);}
	.st3{fill:url(#SVGID_2_);}
	.st4{fill:#0E4E9C;}
	.st5{fill:#004F97;}
	.st6{fill:#EE8C2B;}
	.st7{fill:#B7C1CE;}
	.st8{fill:#408F61;}
	.st9{fill:#BE4E6D;}
	.st10{font-family:'Montserrat-Bold';}
	.st11{font-size:72px;}
</style>
<g>
	<path class="st0" d="M471.2,331.6l19.4-13.9c0.6-2.3,2.1-6.3,5.4-10.3c2.9-3.6,6.2-5.6,8.3-6.7c2.3-1,5.2-2,8.4-2.7
		c5.2-1.1,9.8-1.2,13.2-1c5.5-0.5,13-1.7,21.3-5c6.3-2.5,11.3-5.5,15.1-8.2c0.2,2.5,0.2,6.3-0.9,10.8c-1.5,5.8-4.3,9.9-6,12.1
		c-1.3,2-3.3,4.4-6,6.8c-3.4,3-6.7,5-9.3,6.2c-1.7,0.3-5.7,1.3-9.4,4.5c-4.4,3.8-5.7,8.5-6.1,10.2c0.9,3.3,2.1,7.2,4.1,11.4
		c1.4,3,2.9,5.6,4.4,7.9c3.2,6.4,6.3,13,9.4,19.7c1.8,4,3.6,7.9,5.3,11.7c-1.6,3-3.7,7.1-6.3,12c-3.1,5.6-5.8,10.1-9,15.3
		c-4,6.7-9.8,15.9-17,27.3c-10.9-18.2-21.7-36.6-32.5-54.8c4.8-6,10.1-13.6,14.8-22.9c3-5.9,5.3-11.4,7.1-16.6
		c0.2-0.6,1.1-4.4-1.3-7.9c-2.2-3.3-5.7-4.1-6.3-4.3c-9.3-0.2-18.6-0.5-27.8-0.7L471.2,331.6z"/>
	<path class="st1" d="M730.5,19.6c5.6,16.6,10.9,35.9,14.9,57.5c4.3,22.5,6.3,43.2,7.1,61.2c1.4,21,1.7,45.9-1,73.7
		c-2.8,29.1-7.9,54.7-13.6,75.8c-3.7,13.9-9.4,30.5-18.1,48.5c-8.5,17.5-17.7,31.9-26.1,43.3c-15.2,17.6-39,41.2-72.9,62
		c-37.4,23-72.5,33.7-96.4,39c3.3-14.3,8.9-32.4,18.5-52c9.6-19.7,20.5-35.1,29.7-46.5c8.9-9,20.1-19.1,33.9-28.9
		c11.3-8.1,22.2-14.4,32-19.3c6.7-4.7,14.5-10.9,22.5-19.1c8.1-8.3,14.1-16.5,18.6-23.4c1.7,5.2,3.7,13.2,2.8,22.7
		c-1,9.6-4,16.7-9.2,25.2c-8.3,13.5-16.5,26.9-24.7,40.4c6.9-4.2,16-10.8,24.8-20.6c7.1-7.9,11.9-15.5,15.2-21.7
		c4.9-10.8,12.9-32,12-59.7c-0.9-25.4-8.8-44.6-14-55c-5.8-11-13.1-28.2-16.5-50.2c-3.6-23.4-1.3-42.9,1.1-55.5
		c4-14.5,11.1-34.5,24.6-55.8C707.5,42.6,720.2,29,730.5,19.6z"/>
	<linearGradient id="SVGID_1_" gradientUnits="userSpaceOnUse" x1="723.9114" y1="339.6843" x2="791.6943" y2="193.866">
		<stop  offset="0" style="stop-color:#FFFFFF"/>
		<stop  offset="1" style="stop-color:#C0C0C0"/>
	</linearGradient>
	<path class="st2" d="M759.6,176.6c5.3-8,10.6-16.3,15.9-24.8c12.9-20.8,24.3-41.1,34.7-60.8c4.8,13.7,9.6,32,11.6,53.9
		c2.4,26.6-0.5,49-3.7,65c-2,10.2-5.2,22.5-10.5,35.7c-6.8,17.1-15,30.6-22.2,40.7c-5.6,8.7-14,19.7-25.8,30.6
		c-13.1,12-25.9,19.8-35.8,24.8c10.8-24.6,22.1-56.6,29.1-94.9C757.5,220.7,759.4,197,759.6,176.6z"/>
	
		<linearGradient id="SVGID_2_" gradientUnits="userSpaceOnUse" x1="1342.7557" y1="339.6843" x2="1410.5386" y2="193.866" gradientTransform="matrix(-1 0 0 1 1649.8314 0)">
		<stop  offset="0" style="stop-color:#FFFFFF"/>
		<stop  offset="1" style="stop-color:#C0C0C0"/>
	</linearGradient>
	<path class="st3" d="M271.4,176.6c-5.3-8-10.6-16.3-15.9-24.8c-12.9-20.8-24.3-41.1-34.7-60.8c-4.8,13.7-9.6,32-11.6,53.9
		c-2.4,26.6,0.5,49,3.7,65c2,10.2,5.2,22.5,10.5,35.7c6.8,17.1,15,30.6,22.2,40.7c5.6,8.7,14,19.7,25.8,30.6
		c13.1,12,25.9,19.8,35.8,24.8c-10.8-24.6-22.1-56.6-29.1-94.9C273.5,220.7,271.6,197,271.4,176.6z"/>
	<path class="st4" d="M723.7,354.5c18.2-9.9,41.8-25.3,65.6-48.5c22.5-21.9,37.9-43.8,48.2-60.9c0,10.9-1,24.5-4.3,39.8
		c-5.1,22.8-13.7,40.5-20.9,52.7c-7.6,11.7-20.3,28.1-39.7,43.3c-21.8,17.1-43.2,25.8-57.3,30.2c10.6,1,23.5,1.2,38.1-0.6
		c20.3-2.4,37.1-7.8,49.2-12.9c-10.2,11.8-25.2,26.9-45.9,40.9c-21,14.1-40.8,22.5-55.6,27.5c-16.2,6-41.2,13.1-72.4,13.3
		c-23.4,0.1-43-3.8-57.3-7.9c16-5.6,36.3-14.4,57.8-28.4c18.5-12.1,33-24.8,43.8-35.9c7.9-10.1,17.2-20.8,28.1-31.7
		C708.7,367.7,716.3,360.7,723.7,354.5z"/>
	<path class="st1" d="M300.5,19.6c-5.6,16.6-10.9,35.9-14.9,57.5c-4.3,22.5-6.3,43.2-7.1,61.2c-1.4,21-1.7,45.9,1,73.7
		c2.8,29.1,7.9,54.7,13.6,75.8c3.7,13.9,9.4,30.5,18.1,48.5c8.5,17.5,17.7,31.9,26.1,43.3c15.2,17.6,39,41.2,72.9,62
		c37.4,23,72.5,33.7,96.4,39c-3.3-14.3-8.9-32.4-18.5-52c-9.6-19.7-20.5-35.1-29.7-46.5c-8.9-9-20.1-19.1-33.9-28.9
		c-11.3-8.1-22.2-14.4-32-19.3c-12.7-6-20.2-13.4-24-17.9c-4.4-5.2-7.7-10.9-9.2-13.4c-3.3-5.7-5.6-10.8-7.1-14.8
		c-2.1,5.6-4.4,14.9-3.6,26.2c0.6,7.9,2.7,14.8,7.9,25.5c4.9,10,12.9,24.2,25.9,40c-6.9-4.2-16-10.8-24.8-20.6
		c-7.1-7.9-11.9-15.5-15.2-21.7c-4.9-10.8-12.9-32-12-59.7c0.9-25.4,8.8-44.6,14-55c5.8-11,13.1-28.2,16.5-50.2
		c3.6-23.4,1.3-42.9-1.1-55.5c-4-14.5-11.1-34.5-24.6-55.8C323.6,42.6,310.8,29,300.5,19.6z"/>
	<path class="st0" d="M307.3,354.5c-18.2-9.9-41.8-25.3-65.6-48.5c-22.5-21.9-37.9-43.8-48.2-60.9c0,10.9,1,24.5,4.3,39.8
		c5.1,22.8,13.7,40.5,20.9,52.7c7.6,11.7,20.3,28.1,39.7,43.3c21.8,17.1,43.2,25.8,57.3,30.2c-10.6,1-23.5,1.2-38.1-0.6
		c-20.3-2.4-37.1-7.8-49.2-12.9c10.2,11.8,25.2,26.9,45.9,40.9c21,14.1,40.8,22.5,55.6,27.5c16.2,6,41.2,13.1,72.4,13.3
		c23.4,0.1,43-3.8,57.3-7.9c-16-5.6-36.3-14.4-57.8-28.4c-18.5-12.1-33-24.8-43.8-35.9c-7.9-10.1-17.2-20.8-28.1-31.7
		C322.3,367.7,314.6,360.7,307.3,354.5z"/>
	<path class="st5" d="M497,498.5c1.5,4.2,3.1,10.2,3.5,17.5c0.5,8-0.7,14.6-1.8,19.2c-1.3,4.4-3.6,10.1-7.5,16.1
		c-5,7.7-10.7,12.9-14.8,16.1c-5.5,5.2-11.7,11.9-17.8,20.5c-4.9,7.1-8.6,13.8-11.4,19.8c-3.3,6.9-6.7,15.3-9.6,25.1
		c-3.3,11.4-5,21.7-5.8,30.3c-2.1-6.2-4.8-16.1-4.3-28.4c0.4-9.3,2.4-17,4.3-22.4c1.4-5.7,3.9-13,8-20.9c3.8-7.2,8-12.9,11.7-17.1
		c2-2.3,5.2-5.9,9.4-10.2c6.1-6.2,8.9-8.4,13.8-13.7c2.3-2.5,5.6-6.3,9.4-11.3c3.1-4.8,6.7-11.7,9.4-20.5
		C495.9,510.7,496.7,503.8,497,498.5z"/>
	<path class="st6" d="M483.4,578.4c-4,7.5-8.2,16.1-12,25.9c-4.4,11.1-7.4,21.5-9.6,30.7c-1.6,8-3.2,16.2-4.6,24.5
		c-2.8,15.8-5,31.1-6.9,46c-2.8-8.5-5.8-20.5-6.3-35.1c-0.6-13.6,1.2-25.1,3.2-33.4c1.2-4.7,2.9-10.8,5.8-17.7
		c0.7-1.7,3.3-8.2,6.6-13.9C462.8,599.6,469.8,589.1,483.4,578.4z"/>
	<path class="st1" d="M491.9,601.2l-12.1,151.9c-4-13.8-7.8-31.8-8.5-53.1c-0.6-14.6,0.5-27.5,2.1-38.5c1.3-8.2,3.2-17.2,6-27
		C482.9,621.7,487.4,610.6,491.9,601.2z"/>
	<path class="st5" d="M533.4,498.5c-1.5,4.2-3.1,10.2-3.5,17.5c-0.5,8,0.7,14.6,1.8,19.2c1.3,4.4,3.6,10.1,7.5,16.1
		c5,7.7,10.7,12.9,14.8,16.1c5.5,5.2,11.7,11.9,17.8,20.5c4.9,7.1,8.6,13.8,11.4,19.8c3.3,6.9,6.7,15.3,9.6,25.1
		c3.3,11.4,5,21.7,5.8,30.3c2.1-6.2,4.8-16.1,4.3-28.4c-0.4-9.3-2.4-17-4.3-22.4c-1.4-5.7-3.9-13-8-20.9c-3.8-7.2-8-12.9-11.7-17.1
		c-2-2.3-5.2-5.9-9.4-10.2c-6.1-6.2-8.9-8.4-13.8-13.7c-2.3-2.5-5.6-6.3-9.4-11.3c-3.1-4.8-6.7-11.7-9.4-20.5
		C534.5,510.7,533.6,503.8,533.4,498.5z"/>
	<path class="st6" d="M547,578.4c4,7.5,8.2,16.1,12,25.9c4.4,11.1,7.4,21.5,9.6,30.7c1.6,8,3.2,16.2,4.6,24.5
		c2.8,15.8,5,31.1,6.9,46c2.8-8.5,5.8-20.5,6.3-35.1c0.6-13.6-1.2-25.1-3.2-33.4c-1.2-4.7-2.9-10.8-5.8-17.7
		c-0.7-1.7-3.3-8.2-6.6-13.9C567.6,599.6,560.7,589.1,547,578.4z"/>
	<path class="st1" d="M538.5,601.2l12.1,151.9c4-13.8,7.8-31.8,8.5-53.1c0.6-14.6-0.5-27.5-2.1-38.5c-1.3-8.2-3.2-17.2-6-27
		C547.5,621.7,543,610.6,538.5,601.2z"/>
	<path class="st7" d="M515.1,518.8c2.2,14.9,4.1,30.5,5.6,46.9c1,9.8,3.3,36.1,3.8,70.6c0.5,30.8-0.6,54.3-1,62.4
		c-1.2,22.9-3.6,51.4-8.4,84.3c-3.8-24.7-6.8-51.7-8.5-80.8c-1.3-23.1-1.6-44.9-1.2-65.3c0.6-22.5,1.9-46.2,4.3-71
		C511.2,549.5,513.1,533.8,515.1,518.8z"/>
</g>
<path class="st8" d="M483.3,498.7c0-0.1-0.1-0.2-0.2-0.1c-3.6,5.1-8.7,11.4-15.8,17.5c-6.8,6-13.5,10.2-19.1,13.1
	c-1.7,0.9-2.8,2.7-2.8,4.7l0,18.6c0,4.1-1.1,8-3.2,11.5c-3.7,6.2-7.9,12.6-12.6,19.2c-7.5,10.5-15.1,19.7-22.3,27.6
	c-1.3,1.4-2,3.2-2.1,5.1c-0.3,7.2-0.6,14.3-0.9,21.5c2.3-5.8,4.5-11.6,6.8-17.4c0.6-1.6,1.4-3,2.5-4.3c5.9-7.4,11.9-15.3,18-23.8
	c6.4-9,12.3-17.7,17.7-26.2c2.7-4.2,4.1-9.1,4.1-14.1l0.1-12.8c0-3.2,1.7-6.1,4.5-7.7c5.4-3.1,12.7-8.4,18.5-17.2
	C480.2,508.2,482.2,502.8,483.3,498.7z"/>
<path class="st8" d="M551.1,498.7c0-0.1,0.1-0.2,0.2-0.1c3.6,5.1,8.7,11.4,15.8,17.5c6.8,6,13.5,10.2,19.1,13.1
	c1.7,0.9,2.8,2.7,2.8,4.7v18.6c0,4.1,1.1,8,3.2,11.5c3.7,6.2,7.9,12.6,12.6,19.2c7.5,10.5,15.1,19.7,22.3,27.6
	c1.3,1.4,2,3.2,2.1,5.1c0.3,7.2,0.6,14.3,0.9,21.5c-2.3-5.8-4.5-11.6-6.8-17.4c-0.6-1.6-1.4-3-2.5-4.3c-5.9-7.4-11.9-15.3-18-23.8
	c-6.4-9-12.3-17.7-17.7-26.2c-2.7-4.2-4.1-9.1-4.1-14.1l-0.1-12.8c0-3.2-1.7-6.1-4.5-7.7c-5.4-3.1-12.7-8.4-18.5-17.2
	C554.2,508.2,552.2,502.8,551.1,498.7z"/>
<path class="st9" d="M441.6,530c-8.8-0.1-16.2,6.3-17.4,14.5c-1.1,7.5,3.2,15.1,10.6,18.1c-1-1.8-4.4-8.9-2.5-17.9
	C434.2,536.2,439.9,531.3,441.6,530z"/>
<path class="st9" d="M592.7,530c8.8-0.1,16.2,6.3,17.4,14.5c1.1,7.5-3.2,15.1-10.6,18.1c1-1.8,4.4-8.9,2.5-17.9
	C600,536.2,594.4,531.3,592.7,530z"/>
<text transform="matrix(1 0 0 1 280.6658 863.0215)"><tspan x="0" y="0" class="st4 st10 st11">MADANIYAT </tspan><tspan x="-43.7" y="86.4" class="st4 st10 st11">KO‘NGILLILARI</tspan></text>
</svg>
