<svg width="40" height="32" viewBox="0 0 40 32" fill="none" xmlns="http://www.w3.org/2000/svg">
<path d="M0 16.0223C0.0449486 5.35565 8.13572 0 16.1366 0C22.4744 0.0446325 29.0818 3.30265 30.6101 11.0683H22.6991C21.3956 8.39052 19.3279 7.31939 16.1366 7.31939C11.0574 7.31939 8.31551 11.2469 8.31551 16.0223C8.31551 21.1994 11.372 24.5914 16.1366 24.5914C19.3729 24.5914 21.4405 23.7434 22.8789 20.7531H16.1815V13.8354H31.0596C31.2394 16.9596 31.2394 19.9498 30.1606 22.9847C27.9131 29.5007 21.935 32 16.1366 32C8.13572 32 0.0449486 26.689 0 16.0223Z" fill="#216AD7"/>
</svg>